<svg width="50" height="49" viewBox="0 0 50 49" fill="none" xmlns="http://www.w3.org/2000/svg">
<path d="M31.3651 42.0344C31.3651 43.7066 30.657 45.3104 29.3965 46.4928C28.1361 47.6753 26.4265 48.3396 24.644 48.3396C22.8614 48.3396 21.1519 47.6753 19.8914 46.4928C18.631 45.3104 17.9229 43.7066 17.9229 42.0344C17.9229 40.3622 18.631 38.7584 19.8914 37.576C21.1519 36.3935 22.8614 35.7292 24.644 35.7292C26.4265 35.7292 28.1361 36.3935 29.3965 37.576C30.657 38.7584 31.3651 40.3622 31.3651 42.0344Z" fill="#F39C12"/>
<path d="M24.6441 0C22.789 0 21.2835 1.41145 21.2835 3.15258C21.2835 3.53698 21.3597 3.92832 21.4941 4.26901C18.4443 4.68473 15.9976 5.71479 14.2125 7.35602C12.3167 9.09793 11.4118 11.4855 11.412 14.4493C11.4118 19.1557 10.3868 23.657 8.47129 27.9129C6.55599 32.1521 3.75195 35.662 0 38.554C0 39.4871 0.369885 40.3005 1.12019 40.9835C1.87048 41.6666 2.75386 42.0344 3.78062 42.0344H11.132H17.0129H18.063H19.3931H20.3739H21.633H32.2748H45.5064C46.5347 42.0344 47.4174 41.6666 48.168 40.9835C48.9185 40.3005 49.2881 39.4871 49.2881 38.554C45.5355 35.662 42.7328 32.1521 40.8173 27.9129C38.9018 23.657 37.8757 19.1557 37.8757 14.4493C37.8757 11.4855 36.9706 9.09793 35.0752 7.35602C33.2897 5.71479 30.8432 4.68473 27.794 4.26901C27.9285 3.92832 28.0046 3.53698 28.0046 3.15258C28.0046 1.41145 26.4991 0 24.6441 0Z" fill="#F1C40F"/>
<path d="M24.644 35.7292C20.9317 35.7292 17.9229 38.4615 17.9229 42.0344C17.9229 45.3972 20.9317 48.3396 24.644 48.3396V35.7292Z" fill="#E67E22"/>
<path d="M24.6441 0C22.789 0 21.2835 1.26103 21.2835 3.15258C21.2835 3.36275 21.3597 3.7831 21.4941 4.20344C18.4443 4.62378 15.9976 5.67464 14.2125 7.35602C12.3167 9.0374 11.4118 11.3491 11.412 14.2915C11.4118 19.1255 10.3868 23.5392 8.47129 27.7426C6.55599 32.1562 3.75195 35.5189 0 38.4613C0 39.5122 0.369885 40.1429 1.12019 40.9835C1.87048 41.6141 2.75386 42.0344 3.78062 42.0344H11.132H17.0129H18.063H19.3931H20.3739H21.633H24.6441V0Z" fill="#F39C12"/>
<path d="M17.9229 42.0344C17.9229 42.6649 18.0886 43.2954 18.3429 44.1361H30.9439C31.1993 43.2954 31.3651 42.6649 31.3651 42.0344H17.9229Z" fill="#E67E22"/>
</svg>
