<svg width="22" height="20" viewBox="0 0 22 20" fill="none" xmlns="http://www.w3.org/2000/svg">
<path d="M11.465 0.391261C11.2244 0.230058 10.9361 0.143402 10.6404 0.143402C10.3447 0.143402 10.0564 0.230058 9.81573 0.391261L0 6.9686V19.9547H21.2807V6.9686L11.465 0.391261ZM19.862 16.074L14.3632 12.7578L19.862 8.74562V16.074ZM10.6404 1.47425L19.4377 7.36929L13.098 11.9948L10.6404 10.5127L8.1827 11.9948L1.84304 7.36929L10.6404 1.47425ZM1.41871 8.74562L6.91756 12.7578L1.41871 16.074V8.74562ZM19.862 18.6238H1.41871V17.6562L10.6404 12.0949L19.862 17.6562V18.6238Z" fill="white"/>
</svg>
