<svg width="47" height="54" viewBox="0 0 47 54" fill="none" xmlns="http://www.w3.org/2000/svg">
<path fill-rule="evenodd" clip-rule="evenodd" d="M42.4324 25.5931L45.8227 22.1746L22.9793 0L0 22.1746L3.27533 25.4615L22.9657 6.72811L42.4324 25.5931Z" fill="#FFBF1B"/>
<rect x="34.6322" y="5.21881" width="5.71083" height="12.6454" fill="#FFBF1B"/>
<path fill-rule="evenodd" clip-rule="evenodd" d="M6.8939 25.6146L22.9658 10.1138L39.0377 25.6146V45.6025H6.8939V25.6146ZM24.5976 24.2277H30.8795V30.2649H24.5976V24.2277ZM21.2526 24.2277H14.9707V30.2649H21.2526V24.2277ZM14.9707 33.8546H21.2526V39.8917H14.9707V33.8546ZM30.8795 33.8546H24.5976V39.8917H30.8795V33.8546Z" fill="#FFBF1B"/>
<path d="M11.5849 39.7693C5.1165 40.159 1.80848 46.3368 1.14221 50.3751C3.84806 48.6483 8.36233 45.888 14.5627 46.6631C18.3155 46.6631 26.2291 55.107 35.3256 52.5779C43.6972 50.2504 44.9388 41.8225 44.5853 38.1377C44.0822 38.6815 42.4315 40.267 39.8535 42.2576C28.8805 48.05 18.3971 39.359 11.5849 39.7693Z" fill="#FFBF1B"/>
<path d="M40.0574 0.97647C38.0994 0.97647 36.9874 2.92958 36.8349 4.01212C37.4541 3.54921 38.4871 2.8093 39.9059 3.01706C40.7647 3.01706 42.5755 5.28054 44.6571 4.6026C46.5728 3.97867 46.8569 1.71949 46.776 0.73172C46.6608 0.877515 46.2831 1.30251 45.6932 1.83612C43.28 3.13843 43.0046 0.97647 40.0574 0.97647Z" fill="#FFBF1B"/>
</svg>
