<svg width="27" height="27" viewBox="0 0 27 27" fill="none" xmlns="http://www.w3.org/2000/svg">
<path d="M16.9982 19.6133C16.7395 19.6133 16.4867 19.6899 16.2717 19.8336C16.0567 19.9773 15.8891 20.1815 15.7901 20.4204C15.6912 20.6593 15.6653 20.9223 15.7157 21.1759C15.7662 21.4295 15.8907 21.6625 16.0736 21.8454C16.2564 22.0282 16.4894 22.1528 16.7431 22.2032C16.9967 22.2537 17.2596 22.2278 17.4985 22.1288C17.7375 22.0299 17.9417 21.8623 18.0853 21.6472C18.229 21.4322 18.3057 21.1794 18.3057 20.9208C18.3057 20.574 18.1679 20.2414 17.9227 19.9962C17.6775 19.751 17.3449 19.6133 16.9982 19.6133ZM9.15285 19.6133H5.2302C4.88342 19.6133 4.55084 19.751 4.30562 19.9962C4.06041 20.2414 3.92265 20.574 3.92265 20.9208C3.92265 21.2676 4.06041 21.6002 4.30562 21.8454C4.55084 22.0906 4.88342 22.2284 5.2302 22.2284H9.15285C9.49963 22.2284 9.83221 22.0906 10.0774 21.8454C10.3226 21.6002 10.4604 21.2676 10.4604 20.9208C10.4604 20.574 10.3226 20.2414 10.0774 19.9962C9.83221 19.751 9.49963 19.6133 9.15285 19.6133ZM20.9208 19.6133C20.6622 19.6133 20.4094 19.6899 20.1944 19.8336C19.9793 19.9773 19.8117 20.1815 19.7128 20.4204C19.6138 20.6593 19.5879 20.9223 19.6384 21.1759C19.6888 21.4295 19.8134 21.6625 19.9962 21.8454C20.1791 22.0282 20.4121 22.1528 20.6657 22.2032C20.9193 22.2537 21.1823 22.2278 21.4212 22.1288C21.6601 22.0299 21.8643 21.8623 22.008 21.6472C22.1517 21.4322 22.2284 21.1794 22.2284 20.9208C22.2284 20.574 22.0906 20.2414 21.8454 19.9962C21.6002 19.751 21.2676 19.6133 20.9208 19.6133ZM16.9982 11.768C16.7395 11.768 16.4867 11.8446 16.2717 11.9883C16.0567 12.132 15.8891 12.3362 15.7901 12.5751C15.6912 12.814 15.6653 13.077 15.7157 13.3306C15.7662 13.5842 15.8907 13.8172 16.0736 14.0001C16.2564 14.1829 16.4894 14.3075 16.7431 14.3579C16.9967 14.4084 17.2596 14.3825 17.4985 14.2835C17.7375 14.1846 17.9417 14.017 18.0853 13.8019C18.229 13.5869 18.3057 13.3341 18.3057 13.0755C18.3057 12.7287 18.1679 12.3961 17.9227 12.1509C17.6775 11.9057 17.3449 11.768 16.9982 11.768ZM9.15285 11.768H5.2302C4.88342 11.768 4.55084 11.9057 4.30562 12.1509C4.06041 12.3961 3.92265 12.7287 3.92265 13.0755C3.92265 13.4223 4.06041 13.7549 4.30562 14.0001C4.55084 14.2453 4.88342 14.3831 5.2302 14.3831H9.15285C9.49963 14.3831 9.83221 14.2453 10.0774 14.0001C10.3226 13.7549 10.4604 13.4223 10.4604 13.0755C10.4604 12.7287 10.3226 12.3961 10.0774 12.1509C9.83221 11.9057 9.49963 11.768 9.15285 11.768ZM20.9208 3.92265C20.6622 3.92265 20.4094 3.99934 20.1944 4.14301C19.9793 4.28669 19.8117 4.4909 19.7128 4.72982C19.6138 4.96875 19.5879 5.23165 19.6384 5.48529C19.6888 5.73893 19.8134 5.97191 19.9962 6.15478C20.1791 6.33764 20.4121 6.46217 20.6657 6.51263C20.9193 6.56308 21.1823 6.53718 21.4212 6.43822C21.6601 6.33925 21.8643 6.17166 22.008 5.95664C22.1517 5.74161 22.2284 5.48881 22.2284 5.2302C22.2284 4.88342 22.0906 4.55084 21.8454 4.30562C21.6002 4.06041 21.2676 3.92265 20.9208 3.92265ZM20.9208 11.768C20.6622 11.768 20.4094 11.8446 20.1944 11.9883C19.9793 12.132 19.8117 12.3362 19.7128 12.5751C19.6138 12.814 19.5879 13.077 19.6384 13.3306C19.6888 13.5842 19.8134 13.8172 19.9962 14.0001C20.1791 14.1829 20.4121 14.3075 20.6657 14.3579C20.9193 14.4084 21.1823 14.3825 21.4212 14.2835C21.6601 14.1846 21.8643 14.017 22.008 13.8019C22.1517 13.5869 22.2284 13.3341 22.2284 13.0755C22.2284 12.7287 22.0906 12.3961 21.8454 12.1509C21.6002 11.9057 21.2676 11.768 20.9208 11.768ZM26.151 3.92265C26.151 2.8823 25.7377 1.88456 25.0021 1.14892C24.2664 0.413278 23.2687 0 22.2284 0H3.92265C2.8823 0 1.88456 0.413278 1.14892 1.14892C0.413278 1.88456 0 2.8823 0 3.92265V6.53775C0.0057671 7.50541 0.369005 8.43679 1.01989 9.15285C0.369005 9.86891 0.0057671 10.8003 0 11.768V14.3831C0.0057671 15.3507 0.369005 16.2821 1.01989 16.9982C0.369005 17.7142 0.0057671 18.6456 0 19.6133V22.2284C0 23.2687 0.413278 24.2664 1.14892 25.0021C1.88456 25.7377 2.8823 26.151 3.92265 26.151H22.2284C23.2687 26.151 24.2664 25.7377 25.0021 25.0021C25.7377 24.2664 26.151 23.2687 26.151 22.2284V19.6133C26.1452 18.6456 25.782 17.7142 25.1311 16.9982C25.782 16.2821 26.1452 15.3507 26.151 14.3831V11.768C26.1452 10.8003 25.782 9.86891 25.1311 9.15285C25.782 8.43679 26.1452 7.50541 26.151 6.53775V3.92265ZM23.5359 22.2284C23.5359 22.5751 23.3981 22.9077 23.1529 23.1529C22.9077 23.3981 22.5751 23.5359 22.2284 23.5359H3.92265C3.57587 23.5359 3.24329 23.3981 2.99807 23.1529C2.75286 22.9077 2.6151 22.5751 2.6151 22.2284V19.6133C2.6151 19.2665 2.75286 18.9339 2.99807 18.6887C3.24329 18.4435 3.57587 18.3057 3.92265 18.3057H22.2284C22.5751 18.3057 22.9077 18.4435 23.1529 18.6887C23.3981 18.9339 23.5359 19.2665 23.5359 19.6133V22.2284ZM23.5359 14.3831C23.5359 14.7298 23.3981 15.0624 23.1529 15.3076C22.9077 15.5528 22.5751 15.6906 22.2284 15.6906H3.92265C3.57587 15.6906 3.24329 15.5528 2.99807 15.3076C2.75286 15.0624 2.6151 14.7298 2.6151 14.3831V11.768C2.6151 11.4212 2.75286 11.0886 2.99807 10.8434C3.24329 10.5982 3.57587 10.4604 3.92265 10.4604H22.2284C22.5751 10.4604 22.9077 10.5982 23.1529 10.8434C23.3981 11.0886 23.5359 11.4212 23.5359 11.768V14.3831ZM23.5359 6.53775C23.5359 6.88453 23.3981 7.21711 23.1529 7.46233C22.9077 7.70754 22.5751 7.8453 22.2284 7.8453H3.92265C3.57587 7.8453 3.24329 7.70754 2.99807 7.46233C2.75286 7.21711 2.6151 6.88453 2.6151 6.53775V3.92265C2.6151 3.57587 2.75286 3.24329 2.99807 2.99807C3.24329 2.75286 3.57587 2.6151 3.92265 2.6151H22.2284C22.5751 2.6151 22.9077 2.75286 23.1529 2.99807C23.3981 3.24329 23.5359 3.57587 23.5359 3.92265V6.53775ZM16.9982 3.92265C16.7395 3.92265 16.4867 3.99934 16.2717 4.14301C16.0567 4.28669 15.8891 4.4909 15.7901 4.72982C15.6912 4.96875 15.6653 5.23165 15.7157 5.48529C15.7662 5.73893 15.8907 5.97191 16.0736 6.15478C16.2564 6.33764 16.4894 6.46217 16.7431 6.51263C16.9967 6.56308 17.2596 6.53718 17.4985 6.43822C17.7375 6.33925 17.9417 6.17166 18.0853 5.95664C18.229 5.74161 18.3057 5.48881 18.3057 5.2302C18.3057 4.88342 18.1679 4.55084 17.9227 4.30562C17.6775 4.06041 17.3449 3.92265 16.9982 3.92265ZM9.15285 3.92265H5.2302C4.88342 3.92265 4.55084 4.06041 4.30562 4.30562C4.06041 4.55084 3.92265 4.88342 3.92265 5.2302C3.92265 5.57698 4.06041 5.90956 4.30562 6.15478C4.55084 6.39999 4.88342 6.53775 5.2302 6.53775H9.15285C9.49963 6.53775 9.83221 6.39999 10.0774 6.15478C10.3226 5.90956 10.4604 5.57698 10.4604 5.2302C10.4604 4.88342 10.3226 4.55084 10.0774 4.30562C9.83221 4.06041 9.49963 3.92265 9.15285 3.92265Z" fill="#1E1E1E"/>
</svg>
