<svg width="29" height="29" viewBox="0 0 29 29" fill="none" xmlns="http://www.w3.org/2000/svg">
<path d="M27.3757 7.80924L24.8409 10.344C24.5825 10.6025 24.1646 10.6025 23.9062 10.344L17.8028 4.24072C17.5444 3.98229 17.5444 3.5644 17.8028 3.30597L20.3376 0.771164C21.3659 -0.257055 23.0374 -0.257055 24.0711 0.771164L27.3757 4.07576C28.4094 5.10398 28.4094 6.77552 27.3757 7.80924ZM15.6254 5.48338L1.18637 19.9224L0.0206911 26.6031C-0.138765 27.5049 0.64752 28.2856 1.54927 28.1317L8.22995 26.9605L22.669 12.5215C22.9274 12.263 22.9274 11.8451 22.669 11.5867L16.5657 5.48338C16.3017 5.22495 15.8839 5.22495 15.6254 5.48338ZM6.82233 18.6853C6.51991 18.3828 6.51991 17.899 6.82233 17.5966L15.29 9.12888C15.5924 8.82646 16.0763 8.82646 16.3787 9.12888C16.6811 9.4313 16.6811 9.91516 16.3787 10.2176L7.91103 18.6853C7.60862 18.9877 7.12475 18.9877 6.82233 18.6853ZM4.83737 23.3095H7.47665V25.3055L3.93012 25.9268L2.22009 24.2168L2.84142 20.6702H4.83737V23.3095Z" fill="#1E1E1E"/>
</svg>
