<svg width="28" height="28" viewBox="0 0 28 28" fill="none" xmlns="http://www.w3.org/2000/svg">
<path d="M13.9245 0C6.26602 0 0 6.26602 0 13.9245C0 21.583 6.26602 27.849 13.9245 27.849C21.583 27.849 27.849 21.583 27.849 13.9245C27.849 6.26602 21.583 0 13.9245 0ZM13.9245 3.48112C19.7032 3.48112 24.3679 8.14583 24.3679 13.9245C24.3679 19.7032 19.7032 24.3679 13.9245 24.3679C8.14583 24.3679 3.48112 19.7032 3.48112 13.9245C3.48112 8.14583 8.14583 3.48112 13.9245 3.48112ZM12.1839 6.96225V14.6903L12.7409 15.1429L14.4815 16.8835L15.6651 18.2063L18.1715 15.6999L16.8486 14.5163L15.6651 13.3327V7.03187H12.1839V6.96225Z" fill="#1E1E1E"/>
</svg>
