<svg width="20" height="23" viewBox="0 0 20 23" fill="none" xmlns="http://www.w3.org/2000/svg">
<path d="M9.5204 0.205261C4.28418 0.205261 0 4.2243 0 9.13647C0 15.165 8.33035 21.9751 8.68736 22.31C8.92537 22.4216 9.28239 22.5333 9.5204 22.5333C9.75841 22.5333 10.1154 22.4216 10.3534 22.31C10.7104 21.9751 19.0408 15.165 19.0408 9.13647C19.0408 4.2243 14.7566 0.205261 9.5204 0.205261ZM9.5204 19.9656C7.02129 17.7328 2.3801 12.9322 2.3801 9.13647C2.3801 5.45235 5.59323 2.43806 9.5204 2.43806C13.4476 2.43806 16.6607 5.45235 16.6607 9.13647C16.6607 12.8206 12.0195 17.7328 9.5204 19.9656ZM9.5204 4.67087C6.90229 4.67087 4.7602 6.68039 4.7602 9.13647C4.7602 11.5926 6.90229 13.6021 9.5204 13.6021C12.1385 13.6021 14.2806 11.5926 14.2806 9.13647C14.2806 6.68039 12.1385 4.67087 9.5204 4.67087ZM9.5204 11.3693C8.21134 11.3693 7.1403 10.3645 7.1403 9.13647C7.1403 7.90843 8.21134 6.90367 9.5204 6.90367C10.8295 6.90367 11.9005 7.90843 11.9005 9.13647C11.9005 10.3645 10.8295 11.3693 9.5204 11.3693Z" fill="white"/>
</svg>
