<svg width="25" height="23" viewBox="0 0 25 23" fill="none" xmlns="http://www.w3.org/2000/svg">
<path d="M13.0252 7.72471C13.8224 7.72471 14.587 8.0218 15.1507 8.55061C15.7144 9.07943 16.031 9.79665 16.031 10.5445C16.031 10.7938 16.1366 11.0329 16.3245 11.2091C16.5124 11.3854 16.7672 11.4844 17.033 11.4844C17.2987 11.4844 17.5536 11.3854 17.7415 11.2091C17.9294 11.0329 18.0349 10.7938 18.0349 10.5445C18.0349 9.29808 17.5071 8.1027 16.5676 7.22135C15.6281 6.33999 14.3539 5.84485 13.0252 5.84485C12.7595 5.84485 12.5046 5.94388 12.3167 6.12015C12.1288 6.29642 12.0233 6.5355 12.0233 6.78478C12.0233 7.03407 12.1288 7.27314 12.3167 7.44941C12.5046 7.62568 12.7595 7.72471 13.0252 7.72471Z" fill="white"/>
<path d="M13.0252 3.96498C14.8853 3.96498 16.6693 4.65817 17.9846 5.89207C19.2999 7.12597 20.0388 8.7995 20.0388 10.5445C20.0388 10.7938 20.1444 11.0329 20.3323 11.2091C20.5202 11.3854 20.775 11.4844 21.0407 11.4844C21.3065 11.4844 21.5613 11.3854 21.7492 11.2091C21.9371 11.0329 22.0427 10.7938 22.0427 10.5445C22.0427 8.30093 21.0926 6.14925 19.4015 4.56281C17.7104 2.97637 15.4168 2.08511 13.0252 2.08511C12.7595 2.08511 12.5046 2.18414 12.3167 2.36041C12.1288 2.53668 12.0233 2.77576 12.0233 3.02505C12.0233 3.27433 12.1288 3.51341 12.3167 3.68968C12.5046 3.86595 12.7595 3.96498 13.0252 3.96498Z" fill="white"/>
<path d="M21.7922 15.1596C21.7371 15.0087 21.6419 14.8734 21.5157 14.7665C21.3895 14.6597 21.2364 14.5847 21.0708 14.5486L15.0591 13.2609C14.896 13.2262 14.7261 13.2304 14.5651 13.2731C14.4041 13.3157 14.257 13.3956 14.1374 13.5053C13.9971 13.6275 13.9871 13.6369 13.3358 14.8024C11.1748 13.8682 9.44327 12.2372 8.45636 10.2061C9.72882 9.60457 9.73884 9.60457 9.8691 9.46358C9.98603 9.35131 10.0711 9.21335 10.1166 9.0623C10.1621 8.91126 10.1666 8.75192 10.1296 8.59884L8.75694 3.02505C8.71852 2.86967 8.63857 2.72603 8.52464 2.60763C8.4107 2.48924 8.26653 2.39999 8.10568 2.34829C7.8717 2.26989 7.63007 2.21323 7.38429 2.17911C7.13105 2.12402 6.87263 2.09254 6.61279 2.08511C5.39043 2.08511 4.21814 2.54064 3.3538 3.35149C2.48946 4.16234 2.00388 5.26209 2.00388 6.4088C2.00918 10.2463 3.63652 13.9251 6.52903 16.6386C9.42154 19.3521 13.3431 20.8788 17.4337 20.8837C18.039 20.8837 18.6383 20.7719 19.1975 20.5546C19.7567 20.3373 20.2648 20.0189 20.6927 19.6174C21.1207 19.2159 21.4602 18.7392 21.6918 18.2147C21.9234 17.6901 22.0427 17.1279 22.0427 16.5601C22.043 16.3208 22.0229 16.0819 21.9825 15.8457C21.9404 15.6122 21.8767 15.3827 21.7922 15.1596ZM17.4337 19.0039C13.8738 19.0014 10.4603 17.6736 7.94306 15.3121C5.42578 12.9506 4.01041 9.74846 4.00775 6.4088C4.01039 5.76142 4.2857 5.14126 4.77367 4.68349C5.26164 4.22572 5.92271 3.96745 6.61279 3.96498H6.94343L8.01551 8.32626L7.47446 8.58944C6.61279 9.01241 5.93148 9.35079 6.29217 10.0839C6.87953 11.6438 7.82992 13.0614 9.07429 14.2336C10.3187 15.4059 11.8258 16.3033 13.4861 16.8608C14.3277 17.1804 14.6584 16.5883 15.1092 15.7705L15.3998 15.2536L20.0388 16.2499V16.5601C20.0361 17.2074 19.7608 17.8276 19.2729 18.2854C18.7849 18.7431 18.1238 19.0014 17.4337 19.0039Z" fill="white"/>
</svg>
