<svg width="25" height="24" viewBox="0 0 25 24" fill="none" xmlns="http://www.w3.org/2000/svg">
<path d="M10.7527 0.0288206C4.82333 0.0288206 0 4.55365 0 10.116C0 15.6784 4.82333 20.2032 10.7527 20.2032C12.5652 20.2032 14.3471 19.7997 15.8525 19.0216C15.9731 19.1577 16.1068 19.2831 16.2519 19.3963L19.3241 22.2783C19.6077 22.5778 19.9537 22.8197 20.3406 22.9891C20.7275 23.1586 21.1473 23.2521 21.5742 23.2639C22.001 23.2757 22.4259 23.2055 22.8228 23.0577C23.2197 22.9099 23.5802 22.6875 23.8822 22.4042C24.1842 22.1209 24.4212 21.7827 24.5788 21.4104C24.7364 21.0381 24.8112 20.6394 24.7986 20.239C24.7861 19.8386 24.6864 19.4448 24.5057 19.0818C24.3251 18.7188 24.0672 18.3943 23.748 18.1282L20.6758 15.2461C20.5262 15.1056 20.3614 14.9801 20.1843 14.8714C21.0138 13.4592 21.536 11.8164 21.536 10.0872C21.536 4.52483 16.7127 0 10.7834 0L10.7527 0.0288206ZM10.7527 2.91088C15.023 2.91088 18.4331 6.10996 18.4331 10.116C18.4331 12.0182 17.6958 13.7762 16.4055 15.0732C16.3748 15.102 16.344 15.1308 16.3133 15.1596C16.1682 15.2727 16.0345 15.3982 15.9139 15.5343C14.5622 16.6871 12.7189 17.35 10.7219 17.35C6.45159 17.35 3.04147 14.1509 3.04147 10.1448C3.04147 6.13878 6.45159 2.9397 10.7219 2.9397L10.7527 2.91088Z" fill="white"/>
</svg>
